# xmcd
#
# Track frame offsets:
#	180
#	14574
#	29323
#	47418
#	63437
#	79033
#	96826
#	114753
#	131273
#	144823
#	163272
#	177978
#	190808
#	209717
#	225967
#
# Disc length: 3254 seconds
#
# Revision: 1
# Processed by: cddbd v1.5.1PL2 Copyright (c) Steve Scherf et al.
# Submitted via: audiograbber 1.83.01
#
DISCID=bd0cb40f
DTITLE=Sound Choice - SC8128
DYEAR=1900
DGENRE=Karaoke Country
TTITLE0=Speedwagon, Reo - Have You Ever Been Lonely 
TTITLE1=Rogers, Kenny and West, Dottie - Everytime Two Fools Collide
TTITLE2=Rogers, Kenny and Parton, Dolly - Islands In The Stream
TTITLE3=Parton, Dolly And Van Shelton, R - Rockin' Years
TTITLE4=Mcentire, Reba and Gill, Vince - Heart Won'T Lie, The
TTITLE5=Morgan, Lorrie and Whitley, Keith - Til' A Tear Becomes A Rose
TTITLE6=Rogers, Kenny and Carnes, Kim - Don'T Fall In Love With A Dreamer
TTITLE7=Yearwood, Trisha And Brooks, G - Like We Never Had A Broken Heart
TTITLE8=Mattea and O'Brien - Battle Hymn Of Love, The
TTITLE9=Rabbit, Eddie and Gayle, Crystal - You And I 
TTITLE10=Mandrell, Barbara And Greenwood - To Me
TTITLE11=Greenwood And Bogguss - Hopelessly Yours
TTITLE12=Osmond And Seals - Meet Me In Montana
TTITLE13=Parton, Dolly And Raye, Colin - Whenever Forever Comes
TTITLE14=Frizell, David and West, Shelly - You'Re The Reason God Made Oklahoma
EXTD=
EXTT0=
EXTT1=
EXTT2=
EXTT3=
EXTT4=
EXTT5=
EXTT6=
EXTT7=
EXTT8=
EXTT9=
EXTT10=
EXTT11=
EXTT12=
EXTT13=
EXTT14=
PLAYORDER=
